<svg width="21" height="19" viewBox="0 0 21 19" fill="none" xmlns="http://www.w3.org/2000/svg">
<path d="M9.73753 0.612343C10.0813 -0.204115 11.252 -0.204114 11.5958 0.612346L13.6245 5.43123C13.7695 5.77543 14.0972 6.01061 14.4733 6.0404L19.7393 6.45748C20.6315 6.52814 20.9933 7.62813 20.3135 8.2034L16.3014 11.5987C16.0149 11.8412 15.8897 12.2218 15.9772 12.5843L17.203 17.661C17.4107 18.5211 16.4635 19.201 15.6997 18.7401L11.1912 16.0196C10.8692 15.8252 10.4642 15.8252 10.1421 16.0196L5.63365 18.7401C4.86977 19.201 3.92261 18.5211 4.13029 17.661L5.35608 12.5843C5.44363 12.2218 5.31848 11.8412 5.03191 11.5987L1.01972 8.2034C0.339939 7.62813 0.701724 6.52814 1.59395 6.45748L6.86001 6.0404C7.23616 6.01061 7.56381 5.77543 7.70872 5.43123L9.73753 0.612343Z" fill="#111111"/>
</svg>
