<svg width="24" height="25" viewBox="0 0 24 25" fill="none" xmlns="http://www.w3.org/2000/svg">
<path fill-rule="evenodd" clip-rule="evenodd" d="M16 3.88867H8C5.23858 3.88867 3 6.12725 3 8.88867V16.8887C3 19.6501 5.23858 21.8887 8 21.8887H16C18.7614 21.8887 21 19.6501 21 16.8887V8.88867C21 6.12725 18.7614 3.88867 16 3.88867ZM19.25 16.8887C19.2445 18.6813 17.7926 20.1332 16 20.1387H8C6.20735 20.1332 4.75549 18.6813 4.75 16.8887V8.88867C4.75549 7.09602 6.20735 5.64416 8 5.63867H16C17.7926 5.64416 19.2445 7.09602 19.25 8.88867V16.8887ZM16.75 9.13867C17.3023 9.13867 17.75 8.69095 17.75 8.13867C17.75 7.58639 17.3023 7.13867 16.75 7.13867C16.1977 7.13867 15.75 7.58639 15.75 8.13867C15.75 8.69095 16.1977 9.13867 16.75 9.13867ZM12 8.38867C9.51472 8.38867 7.5 10.4034 7.5 12.8887C7.5 15.374 9.51472 17.3887 12 17.3887C14.4853 17.3887 16.5 15.374 16.5 12.8887C16.5027 11.6944 16.0294 10.5482 15.1849 9.70375C14.3404 8.85926 13.1943 8.38601 12 8.38867ZM9.25 12.8887C9.25 14.4075 10.4812 15.6387 12 15.6387C13.5188 15.6387 14.75 14.4075 14.75 12.8887C14.75 11.3699 13.5188 10.1387 12 10.1387C10.4812 10.1387 9.25 11.3699 9.25 12.8887Z" fill="#111111"/>
</svg>
