<svg width="24" height="25" viewBox="0 0 24 25" fill="none" xmlns="http://www.w3.org/2000/svg">
<path fill-rule="evenodd" clip-rule="evenodd" d="M5 3.88867H19C20.1046 3.88867 21 4.7841 21 5.88867V19.8887C21 20.9933 20.1046 21.8887 19 21.8887H5C3.89543 21.8887 3 20.9933 3 19.8887V5.88867C3 4.7841 3.89543 3.88867 5 3.88867ZM8 18.8887C8.27614 18.8887 8.5 18.6648 8.5 18.3887V11.3887C8.5 11.1126 8.27614 10.8887 8 10.8887H6.5C6.22386 10.8887 6 11.1126 6 11.3887V18.3887C6 18.6648 6.22386 18.8887 6.5 18.8887H8ZM7.25 9.88867C6.42157 9.88867 5.75 9.2171 5.75 8.38867C5.75 7.56024 6.42157 6.88867 7.25 6.88867C8.07843 6.88867 8.75 7.56024 8.75 8.38867C8.75 9.2171 8.07843 9.88867 7.25 9.88867ZM17.5 18.8887C17.7761 18.8887 18 18.6648 18 18.3887V13.7887C18.0325 12.1995 16.8576 10.8432 15.28 10.6487C14.177 10.5479 13.1083 11.0631 12.5 11.9887V11.3887C12.5 11.1126 12.2761 10.8887 12 10.8887H10.5C10.2239 10.8887 10 11.1126 10 11.3887V18.3887C10 18.6648 10.2239 18.8887 10.5 18.8887H12C12.2761 18.8887 12.5 18.6648 12.5 18.3887V14.6387C12.5 13.8103 13.1716 13.1387 14 13.1387C14.8284 13.1387 15.5 13.8103 15.5 14.6387V18.3887C15.5 18.6648 15.7239 18.8887 16 18.8887H17.5Z" fill="#111111"/>
</svg>
