<svg width="24" height="25" viewBox="0 0 24 25" fill="none" xmlns="http://www.w3.org/2000/svg">
<path d="M20.9728 7.60607C20.5084 8.22559 19.947 8.766 19.3103 9.20643C19.3103 9.36826 19.3103 9.53009 19.3103 9.70092C19.3154 12.6398 18.1415 15.4578 16.0518 17.5232C13.962 19.5886 11.1312 20.7286 8.19405 20.6876C6.49599 20.6933 4.81967 20.3056 3.29642 19.5548C3.21428 19.5189 3.16131 19.4377 3.16162 19.348V19.2491C3.16162 19.12 3.26623 19.0154 3.39527 19.0154C5.06442 18.9603 6.67402 18.3816 7.99634 17.3611C6.48553 17.3306 5.12619 16.4356 4.5006 15.0594C4.46901 14.9843 4.47884 14.898 4.52657 14.8319C4.57429 14.7658 4.653 14.7294 4.73425 14.7358C5.19342 14.7819 5.65718 14.7392 6.1002 14.6099C4.43239 14.2637 3.17921 12.8791 2.99986 11.1844C2.99349 11.1031 3.02992 11.0244 3.096 10.9766C3.16207 10.9289 3.24824 10.919 3.32338 10.9507C3.77094 11.1482 4.25409 11.2522 4.74324 11.2563C3.28184 10.2971 2.65061 8.47272 3.20655 6.81489C3.26394 6.6538 3.40181 6.53479 3.5695 6.50161C3.73718 6.46842 3.90996 6.52595 4.02432 6.65306C5.99639 8.75192 8.70604 10.0026 11.5819 10.1415C11.5083 9.84752 11.4721 9.54543 11.4741 9.24239C11.501 7.65339 12.4842 6.23788 13.9634 5.65854C15.4425 5.07921 17.1249 5.4507 18.223 6.59911C18.9714 6.45652 19.695 6.20512 20.3707 5.85288C20.4202 5.82198 20.483 5.82198 20.5325 5.85288C20.5634 5.9024 20.5634 5.96519 20.5325 6.01471C20.2052 6.76419 19.6523 7.39279 18.9509 7.81286C19.5651 7.74163 20.1685 7.59674 20.7482 7.38131C20.797 7.34809 20.8611 7.34809 20.9099 7.38131C20.9508 7.40001 20.9814 7.43578 20.9935 7.47909C21.0056 7.5224 20.998 7.56885 20.9728 7.60607Z" fill="#111111"/>
</svg>
