<svg width="10" height="19" viewBox="0 0 10 19" fill="none" xmlns="http://www.w3.org/2000/svg">
<path d="M9.5 3.88867H6.5C5.9477 3.88867 5.5 4.33639 5.5 4.88867V7.88867H9.5C9.6137 7.88615 9.7216 7.93907 9.7892 8.03057C9.8568 8.12207 9.8758 8.24067 9.84 8.34867L9.1 10.5487C9.0318 10.7506 8.8431 10.8871 8.63 10.8887H5.5V18.3887C5.5 18.6648 5.2761 18.8887 5 18.8887H2.5C2.22386 18.8887 2 18.6648 2 18.3887V10.8887H0.5C0.22386 10.8887 0 10.6648 0 10.3887V8.38867C0 8.11257 0.22386 7.88867 0.5 7.88867H2V4.88867C2 2.67953 3.7909 0.888672 6 0.888672H9.5C9.7761 0.888672 10 1.11253 10 1.38867V3.38867C10 3.66481 9.7761 3.88867 9.5 3.88867Z" fill="#111111"/>
</svg>
